<svg xmlns="http://www.w3.org/2000/svg" width="19" height="23" fill="none" viewBox="0 0 19 23"><path fill="#fff" d="M0 2.67637C0 1.96656 0.286088 1.28581 0.795329 0.783892C1.30457 0.281974 1.99525 0 2.71542 0H13.5771C14.2973 0 14.988 0.281974 15.4972 0.783892C16.0065 1.28581 16.2925 1.96656 16.2925 2.67637V15.9017L12.9051 19.2739L11.6369 17.9986C11.4508 17.806 11.2276 17.6518 10.9805 17.545C10.7333 17.4381 10.467 17.3808 10.1972 17.3762C9.92733 17.3717 9.65925 17.4201 9.40853 17.5186C9.15781 17.6171 8.92946 17.7637 8.73673 17.9499C8.54401 18.1361 8.39076 18.3582 8.2859 18.6034C8.18104 18.8485 8.12666 19.1117 8.12592 19.3777C8.12517 19.6437 8.17808 19.9072 8.28157 20.1529C8.38505 20.3986 8.53705 20.6215 8.72873 20.8088L9.32748 21.411H2.71542C1.99525 21.411 1.30457 21.129 0.795329 20.6271C0.286088 20.1252 0 19.4444 0 18.7346V2.67637ZM6.78856 10.0364C6.78856 10.2139 6.86008 10.384 6.98739 10.5095C7.1147 10.635 7.28737 10.7055 7.46742 10.7055H12.8983C13.0783 10.7055 13.251 10.635 13.3783 10.5095C13.5056 10.384 13.5771 10.2139 13.5771 10.0364C13.5771 9.85895 13.5056 9.68876 13.3783 9.56328C13.251 9.4378 13.0783 9.36731 12.8983 9.36731H7.46742C7.28737 9.36731 7.1147 9.4378 6.98739 9.56328C6.86008 9.68876 6.78856 9.85895 6.78856 10.0364ZM7.46742 4.01456C7.28737 4.01456 7.1147 4.08505 6.98739 4.21053C6.86008 4.33601 6.78856 4.5062 6.78856 4.68365C6.78856 4.86111 6.86008 5.0313 6.98739 5.15677C7.1147 5.28225 7.28737 5.35275 7.46742 5.35275H12.8983C13.0783 5.35275 13.251 5.28225 13.3783 5.15677C13.5056 5.0313 13.5771 4.86111 13.5771 4.68365C13.5771 4.5062 13.5056 4.33601 13.3783 4.21053C13.251 4.08505 13.0783 4.01456 12.8983 4.01456H7.46742ZM6.78856 15.3891C6.78856 15.5666 6.86008 15.7368 6.98739 15.8623C7.1147 15.9877 7.28737 16.0582 7.46742 16.0582H12.8983C13.0783 16.0582 13.251 15.9877 13.3783 15.8623C13.5056 15.7368 13.5771 15.5666 13.5771 15.3891C13.5771 15.2117 13.5056 15.0415 13.3783 14.916C13.251 14.7905 13.0783 14.7201 12.8983 14.7201H7.46742C7.28737 14.7201 7.1147 14.7905 6.98739 14.916C6.86008 15.0415 6.78856 15.2117 6.78856 15.3891ZM4.07314 11.3746C4.43322 11.3746 4.77856 11.2336 5.03318 10.9826C5.2878 10.7317 5.43085 10.3913 5.43085 10.0364C5.43085 9.68149 5.2878 9.34112 5.03318 9.09016C4.77856 8.8392 4.43322 8.69821 4.07314 8.69821C3.71305 8.69821 3.36771 8.8392 3.11309 9.09016C2.85847 9.34112 2.71542 9.68149 2.71542 10.0364C2.71542 10.3913 2.85847 10.7317 3.11309 10.9826C3.36771 11.2336 3.71305 11.3746 4.07314 11.3746ZM5.43085 4.68365C5.43085 4.32874 5.2878 3.98837 5.03318 3.73741C4.77856 3.48645 4.43322 3.34547 4.07314 3.34547C3.71305 3.34547 3.36771 3.48645 3.11309 3.73741C2.85847 3.98837 2.71542 4.32874 2.71542 4.68365C2.71542 5.03856 2.85847 5.37894 3.11309 5.62989C3.36771 5.88085 3.71305 6.02184 4.07314 6.02184C4.43322 6.02184 4.77856 5.88085 5.03318 5.62989C5.2878 5.37894 5.43085 5.03856 5.43085 4.68365ZM4.07314 16.7273C4.43322 16.7273 4.77856 16.5863 5.03318 16.3354C5.2878 16.0844 5.43085 15.7441 5.43085 15.3891C5.43085 15.0342 5.2878 14.6939 5.03318 14.4429C4.77856 14.1919 4.43322 14.051 4.07314 14.051C3.71305 14.051 3.36771 14.1919 3.11309 14.4429C2.85847 14.6939 2.71542 15.0342 2.71542 15.3891C2.71542 15.7441 2.85847 16.0844 3.11309 16.3354C3.36771 16.5863 3.71305 16.7273 4.07314 16.7273Z"/><path fill="#fff" d="M18.8115 17.1984C18.9347 17.0717 19.0025 16.9024 19.0002 16.7269C18.998 16.5514 18.9258 16.3838 18.7994 16.2602C18.673 16.1367 18.5023 16.067 18.3243 16.0663C18.1462 16.0655 17.975 16.1338 17.8475 16.2563L12.9013 21.1808L10.6679 18.9353C10.6058 18.8712 10.5315 18.8198 10.4491 18.7841C10.3667 18.7485 10.2779 18.7294 10.188 18.7279C10.098 18.7264 10.0087 18.7425 9.9251 18.7753C9.84153 18.8082 9.76541 18.857 9.70117 18.9191C9.63693 18.9812 9.58584 19.0552 9.55089 19.1369C9.51594 19.2186 9.49781 19.3064 9.49756 19.395C9.49731 19.4837 9.51495 19.5715 9.54944 19.6534C9.58394 19.7353 9.63461 19.8097 9.6985 19.8721L12.3175 22.5056C12.3931 22.5817 12.4834 22.6421 12.5829 22.6835C12.6825 22.7248 12.7894 22.7463 12.8974 22.7465C13.0054 22.7468 13.1124 22.7258 13.2122 22.6849C13.3119 22.644 13.4024 22.584 13.4784 22.5083L18.8115 17.1984V17.1984Z"/></svg>