<svg xmlns="http://www.w3.org/2000/svg" width="20" height="22" fill="none" viewBox="0 0 20 22"><g clip-path="url(#clip0)"><path fill="#fff" fill-rule="evenodd" d="M2.1875 0C1.60734 0 1.05094 0.253515 0.640704 0.704774C0.230468 1.15603 0 1.76807 0 2.40625L0 19.5938C0 20.922 0.98 22 2.1875 22H17.8125C18.3927 22 18.9491 21.7465 19.3593 21.2952C19.7695 20.844 20 20.2319 20 19.5938V2.40625C20 1.76807 19.7695 1.15603 19.3593 0.704774C18.9491 0.253515 18.3927 0 17.8125 0H2.1875ZM1.875 2.40625C1.875 2.31508 1.90792 2.22765 1.96653 2.16318C2.02513 2.09872 2.10462 2.0625 2.1875 2.0625H17.8125C17.8954 2.0625 17.9749 2.09872 18.0335 2.16318C18.0921 2.22765 18.125 2.31508 18.125 2.40625V19.5938C18.125 19.6849 18.0921 19.7724 18.0335 19.8368C17.9749 19.9013 17.8954 19.9375 17.8125 19.9375H2.1875C2.10462 19.9375 2.02513 19.9013 1.96653 19.8368C1.90792 19.7724 1.875 19.6849 1.875 19.5938V2.40625ZM14.6875 4.125C14.4389 4.125 14.2004 4.23365 14.0246 4.42705C13.8488 4.62044 13.75 4.88275 13.75 5.15625V15.4688C13.75 15.7423 13.8488 16.0046 14.0246 16.198C14.2004 16.3913 14.4389 16.5 14.6875 16.5C14.9361 16.5 15.1746 16.3913 15.3504 16.198C15.5262 16.0046 15.625 15.7423 15.625 15.4688V5.15625C15.625 4.88275 15.5262 4.62044 15.3504 4.42705C15.1746 4.23365 14.9361 4.125 14.6875 4.125ZM4.375 5.15625C4.375 4.88275 4.47377 4.62044 4.64959 4.42705C4.8254 4.23365 5.06386 4.125 5.3125 4.125C5.56114 4.125 5.7996 4.23365 5.97541 4.42705C6.15123 4.62044 6.25 4.88275 6.25 5.15625V12.7188C6.25 12.9923 6.15123 13.2546 5.97541 13.448C5.7996 13.6413 5.56114 13.75 5.3125 13.75C5.06386 13.75 4.8254 13.6413 4.64959 13.448C4.47377 13.2546 4.375 12.9923 4.375 12.7188V5.15625ZM10 4.125C9.75136 4.125 9.5129 4.23365 9.33709 4.42705C9.16127 4.62044 9.0625 4.88275 9.0625 5.15625V9.96875C9.0625 10.2423 9.16127 10.5046 9.33709 10.698C9.5129 10.8914 9.75136 11 10 11C10.2486 11 10.4871 10.8914 10.6629 10.698C10.8387 10.5046 10.9375 10.2423 10.9375 9.96875V5.15625C10.9375 4.88275 10.8387 4.62044 10.6629 4.42705C10.4871 4.23365 10.2486 4.125 10 4.125Z" clip-rule="evenodd"/></g><defs><clipPath id="clip0"><rect width="20" height="22" fill="#fff"/></clipPath></defs></svg>