<svg width="30" height="31" viewBox="0 0 30 31" fill="none" xmlns="http://www.w3.org/2000/svg">
<path d="M10 15.5672C12.4937 15.5672 14.375 13.6232 14.375 11.0463C14.375 8.46946 12.4937 6.5255 10 6.5255C7.50625 6.5255 5.625 8.46946 5.625 11.0463C5.625 13.6232 7.50625 15.5672 10 15.5672ZM11.25 16.7917H8.75C5.30375 16.7917 2.5 19.6889 2.5 23.25V24.5417H17.5V23.25C17.5 19.6889 14.6962 16.7917 11.25 16.7917ZM25.3675 10.7105L19.9925 16.2543L18.3775 14.5855L16.61 16.4119L19.9925 19.9046L27.1325 12.5395L25.3675 10.7105Z" fill="#663399"/>
</svg>
