<svg width="30" height="28" viewBox="0 0 30 28" fill="none" xmlns="http://www.w3.org/2000/svg">
<g clip-path="url(#clip0)">
<path d="M4.953 17.1332C5.649 19.7638 6.534 20.9146 9.486 22.12C12.4395 23.324 13.842 24.64 15 24.64C16.1565 24.64 17.472 23.4892 20.424 22.2824C23.3775 21.077 22.5885 20.7102 23.2845 18.0796L15 21.84L4.953 17.1332ZM29.2665 10.2704L16.779 3.7436C15.801 3.2326 14.199 3.2326 13.221 3.7436L0.732 10.2704C-0.246 10.7814 -0.246 11.6186 0.732 12.1296L13.2195 18.6564C14.1975 19.1674 15.7995 19.1674 16.7775 18.6564L24.8505 14.4368L16.0965 12.523C15.7374 12.6038 15.3693 12.6442 15 12.6434C13.422 12.6434 12.144 11.935 12.144 11.06C12.144 10.1822 13.4235 9.4738 15 9.4738C16.224 9.4738 17.265 9.9036 17.67 10.5014L26.943 13.342L29.2665 12.1282C30.243 11.6186 30.243 10.7814 29.2665 10.2704ZM25.4505 22.638C25.353 23.177 27.375 24.0632 27.567 22.4882C28.4355 15.3874 26.943 13.3448 26.943 13.3448L24.8505 14.4382C24.8505 14.4368 26.625 16.0132 25.4505 22.638Z" fill="#663399"/>
</g>
<defs>
<clipPath id="clip0">
<rect width="30" height="28" fill="white"/>
</clipPath>
</defs>
</svg>
