<svg width="29" height="27" viewBox="0 0 29 27" fill="none" xmlns="http://www.w3.org/2000/svg">
<path d="M14.4984 7.71208C12.0276 7.6807 9.65177 9.17977 8.74239 11.3146C7.8108 13.3686 8.3258 15.8968 10.001 17.4904C11.6298 19.1229 14.3135 19.7245 16.5615 18.9594C18.9172 18.2122 20.6478 16.0428 20.7101 13.723C20.8356 11.4693 19.3808 9.24095 17.1905 8.28387C16.3547 7.90708 15.4269 7.71093 14.4984 7.71208ZM14.4984 8.76677C16.7566 8.72695 18.8966 10.2703 19.4222 12.3148C19.9985 14.2794 19.0276 16.5195 17.1373 17.5488C15.2073 18.6766 12.4861 18.3761 10.9013 16.8487C9.22877 15.3465 8.93094 12.7474 10.2141 10.9459C11.1228 9.6019 12.7919 8.75129 14.4984 8.76677ZM16.1044 10.1117L14.4066 12.9795C13.8822 13.0314 13.7576 13.7721 14.2414 13.9697C14.561 14.1762 14.8114 13.8327 15.1023 13.8445H17.6977V13.1853H15.0932L16.7245 10.4299L16.1044 10.1117ZM14.6042 1.35373L14.4235 1.354H14.4187L14.4139 1.35408L14.2333 1.35664L14.2285 1.35672L14.2237 1.35685L14.0431 1.36166L14.0383 1.36179L14.0336 1.36198L13.853 1.36906L13.8483 1.36926L13.8435 1.36949L13.6631 1.37884L13.6583 1.3791L13.6535 1.37941L13.4733 1.39101L13.4685 1.39132L13.4637 1.39168L13.2837 1.40556L13.2789 1.40592L13.2742 1.40634L13.0943 1.42248L13.0896 1.42291L13.0848 1.42339L12.9052 1.44179L12.9005 1.44228L12.8957 1.44282L12.7164 1.46348L12.7117 1.46401L12.7069 1.46464L12.528 1.48753L12.5233 1.48814L12.5185 1.4888L12.34 1.51397L12.3352 1.51463L12.3304 1.51536L12.1523 1.54278L12.1475 1.5435L12.1428 1.54429L11.9651 1.57396L11.9603 1.57476L11.9556 1.57562L11.7784 1.60752L11.7737 1.60839L11.7689 1.60929L11.5922 1.64346L11.5874 1.64438L11.5827 1.64537L11.4066 1.68177L11.4018 1.68276L11.3971 1.68382L11.2216 1.72246L11.2168 1.72351L11.2121 1.72462L11.1174 1.74679L10.9929 1.78769L10.8788 1.8494L10.779 1.92974L10.6969 2.02597L10.6354 2.13468L10.5967 2.25212L10.582 2.37423L10.5919 2.49677L10.6261 2.61542L10.6834 2.72614L10.7617 2.82504L10.8583 2.90868L10.97 2.97416L11.0928 3.01922L11.2224 3.04227L11.3544 3.04254L11.4624 3.0254L11.5521 3.00442L11.7177 2.96795L11.8844 2.93345L12.054 2.90069L12.22 2.8708L12.3885 2.84268L12.5575 2.81667L12.725 2.79307L12.8949 2.7713L13.0632 2.75192L13.2339 2.73443L13.4048 2.71908L13.576 2.70593L13.7475 2.69485L13.9171 2.68607L14.0889 2.67935L14.2607 2.67477L14.4305 2.67237L14.6024 2.6721L14.7742 2.67397L14.944 2.67799L15.1135 2.68409L15.2869 2.69253L15.456 2.70291L15.6269 2.71558L15.7976 2.73038L15.9679 2.74739L16.1358 2.76628L16.3048 2.78748L16.474 2.81091L16.6441 2.83673L16.812 2.86443L16.9772 2.8939L17.02 2.90207L17.1512 2.91555L17.2828 2.90613L17.4102 2.87412L17.529 2.82066L17.6351 2.74759L17.7248 2.65746L17.795 2.55339L17.8432 2.43901L17.8677 2.3183L17.8679 2.19543L17.8434 2.07468L17.7954 1.96025L17.7254 1.85613L17.6358 1.76587L17.5298 1.6927L17.411 1.63908L17.3057 1.61084L17.2591 1.60191L17.2542 1.60098L17.2494 1.6001L17.0723 1.56854L17.0675 1.56768L17.0627 1.56689L16.8851 1.53758L16.8803 1.53679L16.8755 1.53607L16.6975 1.50904L16.6927 1.50833L16.6878 1.50767L16.5094 1.48294L16.5046 1.48228L16.4998 1.48166L16.3209 1.45923L16.3161 1.45861L16.3113 1.45807L16.1321 1.4379L16.1273 1.43737L16.1225 1.4369L15.943 1.41901L15.9382 1.41852L15.9334 1.4181L15.7537 1.4025L15.7489 1.4021L15.7441 1.40173L15.564 1.3884L15.5593 1.38803L15.5545 1.38775L15.3742 1.37668L15.3695 1.37639L15.3647 1.37616L15.1843 1.36736L15.1795 1.36712L15.1747 1.36697L14.9942 1.36045L14.9894 1.36028L14.9846 1.36017L14.804 1.35591L14.7992 1.35578L14.7945 1.35573L14.6138 1.35375L14.609 1.3537L14.6042 1.35373ZM21.7394 3.47531L21.6104 3.50117L21.4888 3.54893L21.3788 3.61682L21.2843 3.70257L21.2085 3.80314L21.1541 3.91507L21.1229 4.03448L21.1161 4.15716L21.1338 4.27891L21.1755 4.3955L21.2397 4.50282L21.3242 4.59722L21.4076 4.66335L21.4503 4.69213L21.4512 4.69275L21.5222 4.74157L21.5231 4.74216L21.5897 4.78872L21.5909 4.78954L21.6536 4.83417L21.6546 4.83487L21.7228 4.8842L21.7905 4.93399L21.7917 4.93492L21.8562 4.98313L21.8579 4.98446L21.921 5.03249L21.9874 5.0839L21.989 5.08514L22.0518 5.13453L22.114 5.18436L22.1153 5.18543L22.1803 5.23835L22.2448 5.29178L22.2462 5.29294L22.3073 5.34439L22.3709 5.39887L22.3723 5.40007L22.4322 5.45232L22.4949 5.50784L22.5537 5.56089L22.5553 5.56234L22.6186 5.62038L22.6191 5.62081L22.6754 5.67333L22.6766 5.67446L22.7373 5.73206L22.7952 5.78793L22.796 5.78863L22.8573 5.84883L22.8586 5.85017L22.915 5.90648L22.9715 5.96391L22.9721 5.9645L23.0318 6.02624L23.0894 6.08683L23.0907 6.08823L23.1468 6.14827L23.1475 6.1491L23.2021 6.20857L23.2582 6.27081L23.3112 6.33054L23.3126 6.33213L23.3676 6.39538L23.4225 6.45956L23.4743 6.52126L23.4753 6.52244L23.5303 6.58905L23.5314 6.5905L23.5832 6.65437L23.5843 6.65573L23.6366 6.72152L23.643 6.72961L23.6497 6.7375L23.7273 6.82908L23.8031 6.92062L23.8764 7.01112L23.9481 7.10169L24.0205 7.19523L24.091 7.28848L24.1594 7.38086L24.2261 7.47317L24.227 7.47446L24.2952 7.57099L24.3615 7.6671L24.4267 7.76393L24.4898 7.85975L24.554 7.95971L24.6149 8.0568L24.6758 8.15634L24.7356 8.25651L24.7932 8.35549L24.8508 8.45687L24.9067 8.55786L24.944 8.62697L25.0139 8.73117L25.1034 8.82145L25.2094 8.89471L25.3281 8.94837L25.4555 8.98061L25.587 8.99027L25.7182 8.97703L25.8445 8.94137L25.9615 8.88448L26.0651 8.80838L26.1517 8.71569L26.2184 8.60966L26.2628 8.49395L26.2833 8.37256L26.2793 8.24977L26.2509 8.12978L26.2094 8.03533L26.1704 7.963L26.1687 7.95993L26.167 7.95685L26.1075 7.8494L26.1058 7.84633L26.1041 7.84327L26.0434 7.7364L26.0417 7.73334L26.0399 7.73031L25.978 7.62404L25.9763 7.62101L25.9744 7.61796L25.9113 7.51228L25.9095 7.50928L25.9077 7.50624L25.8434 7.4012L25.8416 7.39819L25.8397 7.39517L25.7742 7.29076L25.7723 7.28775L25.7704 7.28476L25.7037 7.18102L25.7018 7.17801L25.6999 7.17505L25.632 7.07195L25.6301 7.06896L25.6281 7.066L25.5591 6.96357L25.557 6.96059L25.555 6.95765L25.4848 6.85591L25.4828 6.85294L25.4807 6.85002L25.4094 6.74895L25.4073 6.74601L25.4052 6.74307L25.3327 6.64276L25.3306 6.63982L25.3284 6.63692L25.2547 6.53729L25.2526 6.53439L25.2504 6.53149L25.1756 6.4326L25.1734 6.4297L25.1711 6.42682L25.0952 6.3287L25.093 6.3258L25.0907 6.32292L25.0136 6.22555L25.0113 6.22269L25.009 6.21983L24.9307 6.12322L24.9284 6.12036L24.9261 6.11752L24.8467 6.02172L24.8444 6.01886L24.842 6.01605L24.7682 5.92899L24.7185 5.86655L24.7167 5.86423L24.7149 5.86192L24.6583 5.79209L24.6564 5.78979L24.6545 5.7875L24.5974 5.71826L24.5955 5.71596L24.5936 5.7137L24.536 5.64505L24.5341 5.64278L24.5321 5.64054L24.4739 5.57246L24.472 5.57021L24.47 5.56799L24.4113 5.50049L24.4094 5.49825L24.4074 5.49605L24.3481 5.42914L24.3461 5.42693L24.3442 5.42474L24.2844 5.35843L24.2824 5.35622L24.2804 5.35404L24.2201 5.2883L24.2181 5.28614L24.216 5.28398L24.1552 5.21882L24.1532 5.21666L24.1512 5.21455L24.0898 5.14998L24.0878 5.14784L24.0857 5.14574L24.0238 5.08174L24.0218 5.07963L24.0197 5.07752L23.9573 5.01411L23.9553 5.01204L23.9532 5.00996L23.8903 4.94712L23.8882 4.94507L23.8861 4.943L23.8227 4.88077L23.8207 4.8787L23.8185 4.87667L23.7547 4.81502L23.7526 4.81299L23.7504 4.81099L23.6861 4.74991L23.684 4.74791L23.6818 4.74593L23.617 4.68542L23.6148 4.68343L23.6127 4.68147L23.5473 4.62156L23.5452 4.61959L23.543 4.61764L23.4772 4.55831L23.475 4.55635L23.4729 4.55442L23.4066 4.49569L23.4044 4.49375L23.4022 4.49186L23.3355 4.43369L23.3333 4.4318L23.3311 4.42989L23.2639 4.37232L23.2617 4.37045L23.2595 4.3686L23.1918 4.31158L23.1896 4.30974L23.1874 4.30788L23.1192 4.25145L23.117 4.24963L23.1148 4.2478L23.0462 4.19198L23.044 4.19014L23.0417 4.18837L22.9727 4.13312L22.9705 4.13131L22.9682 4.12953L22.8988 4.07487L22.8965 4.07309L22.8942 4.07134L22.8244 4.01725L22.8221 4.01549L22.8198 4.01377L22.7495 3.96025L22.7472 3.95854L22.7449 3.95681L22.6742 3.90389L22.6719 3.90218L22.6696 3.90049L22.5985 3.84815L22.5962 3.84644L22.5939 3.8448L22.5223 3.79302L22.52 3.79137L22.5177 3.78972L22.4457 3.73853L22.4434 3.73688L22.4411 3.73526L22.3687 3.68466L22.3664 3.68304L22.364 3.68145L22.2912 3.63142L22.2889 3.62982L22.2866 3.62824L22.2393 3.59627L22.1257 3.5337L22.0016 3.49183L21.8713 3.47213L21.7394 3.47531ZM6.62653 3.80003L6.49805 3.82818L6.37745 3.87805L6.28631 3.9347L6.28037 3.93905L6.2781 3.94068L6.27589 3.94235L6.20535 3.99482L6.2031 3.99651L6.20089 3.99818L6.13075 4.05122L6.12854 4.05289L6.12633 4.0546L6.05664 4.1082L6.05441 4.10991L6.0522 4.11163L5.98296 4.16579L5.98074 4.1675L5.97853 4.16925L5.90971 4.22395L5.90753 4.22569L5.90535 4.22745L5.83698 4.28271L5.83478 4.28448L5.83261 4.28626L5.76468 4.34206L5.7625 4.34386L5.76035 4.34566L5.69286 4.40202L5.69071 4.40383L5.68856 4.40566L5.62154 4.46256L5.61939 4.46439L5.61722 4.46624L5.55068 4.52372L5.54853 4.52557L5.5464 4.52742L5.48032 4.58543L5.47819 4.58732L5.47607 4.58923L5.41047 4.64778L5.40834 4.64969L5.40623 4.65159L5.3411 4.71072L5.33897 4.71261L5.3369 4.71457L5.27223 4.77423L5.27014 4.77616L5.26806 4.77812L5.2039 4.83832L5.2018 4.8403L5.19972 4.84226L5.13606 4.90304L5.13398 4.90502L5.13194 4.90702L5.06874 4.96832L5.0667 4.97034L5.06465 4.97234L5.00197 5.03423L4.99991 5.03626L4.99788 5.03829L4.93572 5.10071L4.93367 5.10274L4.93164 5.1048L4.87 5.16775L4.86798 5.16985L4.86597 5.17193L4.80484 5.23542L4.80283 5.23752L4.80084 5.23963L4.74021 5.30369L4.73823 5.3058L4.73623 5.30791L4.67612 5.37251L4.67417 5.37466L4.6722 5.37679L4.61263 5.44196L4.61066 5.44409L4.6087 5.44626L4.54968 5.51198L4.54772 5.51414L4.54578 5.51633L4.48729 5.58257L4.48535 5.58476L4.48344 5.58698L4.42547 5.65378L4.42357 5.65599L4.42166 5.65821L4.36424 5.72556L4.36236 5.7278L4.36048 5.73005L4.30362 5.79794L4.30174 5.80018L4.29986 5.80245L4.24356 5.87089L4.2417 5.87315L4.23985 5.87545L4.18408 5.94444L4.18227 5.94672L4.18043 5.94901L4.12523 6.01857L4.12341 6.02088L4.12161 6.02317L4.06699 6.09329L4.06519 6.0956L4.0634 6.09792L4.00936 6.16858L4.00756 6.17092L4.00579 6.17326L3.95232 6.24446L3.95055 6.2468L3.94881 6.24918L3.89591 6.32091L3.89417 6.32328L3.89246 6.32568L3.84015 6.39795L3.83841 6.40035L3.83672 6.40274L3.78501 6.47559L3.78329 6.47798L3.7816 6.4804L3.73049 6.55378L3.72881 6.55621L3.72715 6.55862L3.68931 6.61402L3.64764 6.66684L3.6458 6.66917L3.64399 6.67151L3.58905 6.74244L3.58723 6.7448L3.58546 6.74713L3.53129 6.81839L3.52949 6.82076L3.52775 6.8231L3.47431 6.89468L3.47256 6.89706L3.47082 6.89943L3.41817 6.97131L3.41643 6.97368L3.41471 6.97605L3.36282 7.04825L3.36112 7.05065L3.35942 7.05303L3.30829 7.12552L3.30659 7.12791L3.30494 7.13034L3.25455 7.20313L3.2529 7.20553L3.25125 7.20794L3.20165 7.28102L3.19998 7.28344L3.19838 7.28587L3.14951 7.35925L3.14791 7.36167L3.1463 7.36411L3.09818 7.43778L3.09661 7.44021L3.09503 7.44265L3.04769 7.51661L3.0461 7.51905L3.04454 7.5215L2.99796 7.59572L2.9964 7.59817L2.99489 7.60063L2.94903 7.67514L2.94751 7.67758L2.94602 7.68006L2.9009 7.75483L2.89942 7.75727L2.89794 7.75978L2.85357 7.83481L2.85209 7.83728L2.85065 7.83975L2.80704 7.91507L2.80561 7.91755L2.80419 7.92001L2.76129 7.99559L2.75988 7.99806L2.75847 8.00056L2.71633 8.07638L2.71494 8.07886L2.71359 8.08137L2.67216 8.15742L2.6708 8.15993L2.66948 8.16243L2.6288 8.23874L2.62747 8.24124L2.62614 8.24375L2.58621 8.32031L2.58491 8.32281L2.5836 8.32533L2.54438 8.40212L2.54311 8.40463L2.54187 8.40716L2.50337 8.48418L2.50213 8.48671L2.50088 8.48921L2.49093 8.50962L2.44769 8.6257L2.42839 8.74725L2.43363 8.86999L2.46324 8.98974L2.51623 9.10229L2.59071 9.20371L2.68411 9.29051L2.79322 9.35965L2.91419 9.40876L3.04285 9.4361L3.17471 9.44074L3.30522 9.42251L3.42983 9.38203L3.54423 9.32074L3.6444 9.24074L3.72687 9.14485L3.77983 9.05553L3.78841 9.03799L3.8243 8.96613L3.86156 8.89316L3.86248 8.89138L3.89717 8.82487L3.89754 8.82417L3.93673 8.75066L3.97597 8.67861L3.97658 8.6775L4.01531 8.60793L4.01599 8.60667L4.05457 8.53874L4.09587 8.46751L4.09686 8.46577L4.13713 8.39774L4.17981 8.32703L4.18052 8.32584L4.22243 8.25784L4.22339 8.25627L4.26516 8.18981L4.30804 8.12279L4.30908 8.12121L4.35449 8.05169L4.40059 7.98248L4.44746 7.91347L4.44821 7.91236L4.49503 7.84475L4.49528 7.84439L4.53965 7.78148L4.54089 7.77974L4.58987 7.71161L4.63946 7.64388L4.68981 7.57642L4.69065 7.57531L4.73943 7.51116L4.79121 7.44429L4.84464 7.37657L4.85866 7.35881L4.87136 7.34022L4.92052 7.26828L4.96877 7.19904L4.96965 7.19777L5.01611 7.13234L5.06337 7.06699L5.06398 7.06618L5.11482 6.99723L5.16518 6.93016L5.16623 6.92878L5.21582 6.86405L5.21673 6.86283L5.26586 6.79981L5.31796 6.73419L5.37017 6.66953L5.37141 6.668L5.42178 6.60681L5.47516 6.5431L5.527 6.48223L5.52785 6.48127L5.58254 6.41819L5.63741 6.35605L5.69442 6.29262L5.6948 6.29219L5.75048 6.23135L5.80266 6.17524L5.80283 6.1751L5.8629 6.11159L5.86328 6.1112L5.91907 6.05325L5.92043 6.05186L5.97723 5.9939L5.97806 5.99304L6.03448 5.93642L6.09372 5.87798L6.09474 5.87695L6.14968 5.82365L6.15019 5.82316L6.212 5.76414L6.21333 5.76287L6.27111 5.70867L6.33231 5.65218L6.33375 5.65086L6.39237 5.5977L6.45454 5.54223L6.45605 5.54086L6.51562 5.4886L6.5758 5.4366L6.57708 5.43552L6.64243 5.38003L6.64281 5.3797L6.7049 5.32787L6.70595 5.327L6.76514 5.27835L6.76602 5.27764L6.82913 5.22662L6.82947 5.22637L6.89354 5.17538L6.89507 5.1742L6.96112 5.12257L6.9628 5.12125L7.02563 5.07295L7.09257 5.02232L7.09375 5.02143L7.15537 4.9756L7.1567 4.97461L7.16131 4.97124L7.25701 4.88664L7.33419 4.78697L7.39017 4.67571L7.42301 4.55671L7.43152 4.4341L7.41545 4.31215L7.37537 4.19505L7.31264 4.08696L7.22947 3.99159L7.1287 3.91223L7.01388 3.85167L6.88898 3.81199L6.75836 3.79459L6.62653 3.80003ZM26.7648 12.2518L26.6369 12.2821L26.5172 12.3339L26.41 12.4055L26.3189 12.4944L26.2471 12.5975L26.1971 12.7112L26.1706 12.8316L26.1672 12.9336L26.1726 13.0415L26.1771 13.1577L26.1801 13.2715L26.1818 13.3853L26.1821 13.5019L26.183 13.5108L26.1825 13.5221L26.1856 13.6055L26.1878 13.6901V13.6914L26.1892 13.7719V13.7729L26.1898 13.8505L26.1896 13.9347V13.9356L26.1887 14.0161V14.0168L26.1871 14.0944L26.1847 14.1757L26.1816 14.2565L26.1777 14.3372L26.1731 14.418L26.1677 14.4987L26.1615 14.5791L26.1614 14.5807L26.1546 14.6594L26.1545 14.6607L26.1472 14.7369L26.1389 14.8172L26.1298 14.8972L26.12 14.977L26.1101 15.0525L26.1099 15.0539L26.0983 15.1362L26.0981 15.1371L26.0867 15.2129L26.074 15.2925L26.0606 15.3714L26.0604 15.3731L26.0469 15.4483L26.0321 15.5274L26.0166 15.6059L26.0163 15.6075L26.0009 15.6819L25.9839 15.7606L25.9662 15.8392L25.966 15.8404L25.9485 15.9148L25.9295 15.9931L25.9291 15.9947L25.9104 16.0683L25.8899 16.1464L25.8894 16.1482L25.8696 16.2214L25.8477 16.2991L25.8472 16.301L25.8265 16.3719L25.8262 16.373L25.8028 16.4511L25.8022 16.453L25.7789 16.5284L25.7787 16.5287L25.7552 16.6026L25.7546 16.6042L25.7308 16.6766L25.7062 16.7496L25.7059 16.7506L25.6792 16.8271L25.6536 16.8991L25.653 16.9007L25.6251 16.9769L25.6245 16.9786L25.5972 17.051L25.5965 17.0528L25.5683 17.1259L25.5679 17.1268L25.5407 17.1957L25.5402 17.1969L25.51 17.2715L25.4805 17.3427L25.48 17.3439L25.4491 17.4167L25.3844 17.5641L25.3184 17.7079L25.2496 17.8517L25.1777 17.9959L25.1047 18.1366L25.0292 18.2766L24.9511 18.4163L24.9099 18.4873L24.8583 18.6004L24.8301 18.7204L24.8264 18.8432L24.8472 18.9645L24.8918 19.0802L24.9587 19.1861L25.0455 19.2786L25.1492 19.3545L25.2663 19.4112L25.3927 19.4466L25.5239 19.4597L25.6555 19.4498L25.7828 19.4173L25.9014 19.3634L26.0071 19.29L26.0965 19.1995L26.1559 19.1138L26.1993 19.0389L26.2019 19.0345L26.2043 19.0301L26.2873 18.8817L26.2898 18.8773L26.2922 18.8728L26.3728 18.7232L26.3753 18.7187L26.3776 18.7142L26.4558 18.5635L26.4581 18.5589L26.4604 18.5544L26.5361 18.4025L26.5384 18.3979L26.5406 18.3933L26.6138 18.2403L26.616 18.2357L26.6182 18.231L26.6888 18.0769L26.691 18.0722L26.6931 18.0675L26.7612 17.9124L26.7628 17.9088L26.7643 17.9052L26.7974 17.8273L26.7984 17.8249L26.7994 17.8224L26.8319 17.7442L26.8328 17.7418L26.8338 17.7394L26.8656 17.6609L26.8666 17.6585L26.8675 17.656L26.8987 17.5773L26.8997 17.5749L26.9006 17.5724L26.931 17.4935L26.932 17.491L26.9329 17.4885L26.9627 17.4093L26.9636 17.4069L26.9645 17.4044L26.9936 17.3249L26.9946 17.3224L26.9954 17.3199L27.0239 17.2402L27.0248 17.2377L27.0256 17.2352L27.0534 17.1553L27.0543 17.1528L27.0551 17.1503L27.0822 17.0701L27.0831 17.0676L27.0839 17.065L27.1103 16.9846L27.1112 16.9821L27.112 16.9795L27.1377 16.8989L27.1385 16.8963L27.1393 16.8937L27.1644 16.8129L27.1652 16.8103L27.166 16.8077L27.1903 16.7266L27.1911 16.724L27.1918 16.7214L27.2155 16.6401L27.2162 16.6375L27.217 16.6349L27.2399 16.5534L27.2406 16.5508L27.2413 16.5481L27.2636 16.4664L27.2643 16.4637L27.2649 16.4611L27.2865 16.3791L27.2872 16.3765L27.2878 16.3739L27.3086 16.2917L27.3093 16.289L27.3099 16.2864L27.33 16.204L27.3307 16.2013L27.3313 16.1986L27.3507 16.116L27.3513 16.1133L27.3519 16.1107L27.3705 16.0278L27.3711 16.0251L27.3717 16.0225L27.3896 15.9394L27.3902 15.9367L27.3908 15.934L27.4079 15.8508L27.4085 15.8481L27.409 15.8454L27.4254 15.762L27.426 15.7592L27.4265 15.7565L27.4422 15.6729L27.4427 15.6702L27.4432 15.6674L27.4582 15.5836L27.4586 15.5809L27.4591 15.5781L27.4733 15.4941L27.4738 15.4913L27.4742 15.4886L27.4877 15.4044L27.4881 15.4016L27.4885 15.3989L27.5012 15.3145L27.5016 15.3117L27.502 15.3089L27.5139 15.2244L27.5143 15.2216L27.5147 15.2188L27.5259 15.1341L27.5262 15.1313L27.5266 15.1285L27.537 15.0435L27.5373 15.0408L27.5376 15.0379L27.5473 14.9528L27.5476 14.95L27.5479 14.9472L27.5568 14.8619L27.5571 14.8591L27.5573 14.8563L27.5654 14.7709L27.5657 14.768L27.5659 14.7652L27.5732 14.6796L27.5735 14.6768L27.5737 14.6739L27.5802 14.5881L27.5805 14.5853L27.5807 14.5825L27.5864 14.4965L27.5866 14.4937L27.5868 14.4908L27.5917 14.4047L27.5919 14.4019L27.592 14.399L27.5962 14.3127L27.5963 14.3099L27.5965 14.307L27.5998 14.2206L27.6 14.2177L27.6001 14.2149L27.6027 14.1283L27.6028 14.1254V14.1226L27.6046 14.0358V14.0301L27.6055 13.9432V13.9375L27.6057 13.8504V13.8447L27.605 13.7575V13.7517L27.6034 13.6644V13.6586L27.6011 13.5712V13.5683L27.6009 13.5654L27.5982 13.4876L27.5978 13.3769V13.3698L27.596 13.2488V13.2452L27.5959 13.2416L27.5926 13.1207L27.5925 13.1171L27.5924 13.1135L27.5877 12.9927L27.5876 12.9891L27.5874 12.9855L27.5818 12.8724L27.5634 12.7508L27.5211 12.6344L27.4563 12.5273L27.3713 12.4333L27.2691 12.3557L27.1531 12.297L27.0275 12.2594L26.8965 12.2441L26.7648 12.2518ZM2.02802 12.7552L1.89907 12.7814L1.77761 12.8294L1.66778 12.8975L1.57347 12.9835L1.49794 13.0842L1.4438 13.1963L1.41293 13.3157L1.40576 13.4176L1.40688 13.5018L1.40692 13.5065L1.40706 13.5113L1.41182 13.6788L1.41196 13.6835L1.41216 13.6882L1.41948 13.8557L1.41968 13.8603L1.41996 13.865L1.42983 14.0324L1.43012 14.037L1.43044 14.0417L1.44286 14.209L1.44319 14.2136L1.44361 14.2182L1.45854 14.3854L1.45896 14.39L1.45941 14.3946L1.47687 14.5616L1.47737 14.5661L1.47789 14.5707L1.49786 14.7375L1.49838 14.7421L1.49899 14.7466L1.52145 14.9132L1.52206 14.9177L1.52272 14.9222L1.54765 15.0885L1.54834 15.093L1.54905 15.0975L1.57643 15.2635L1.57718 15.268L1.57798 15.2725L1.60783 15.4382L1.60863 15.4426L1.60948 15.4471L1.64178 15.6124L1.64263 15.6168L1.64355 15.6212L1.67826 15.7862L1.67921 15.7906L1.6802 15.795L1.71731 15.9595L1.7183 15.9639L1.71937 15.9683L1.75887 16.1323L1.75994 16.1367L1.76107 16.141L1.803 16.3046L1.8041 16.3089L1.80526 16.3133L1.84957 16.4763L1.85076 16.4806L1.852 16.4849L1.89866 16.6474L1.89991 16.6517L1.9012 16.656L1.95023 16.8179L1.95154 16.8222L1.9529 16.8265L2.00428 16.9877L2.00563 16.992L2.00704 16.9962L2.06075 17.1569L2.06217 17.1611L2.06366 17.1653L2.11969 17.3253L2.12116 17.3295L2.1227 17.3337L2.18106 17.493L2.18259 17.4972L2.18419 17.5013L2.24484 17.6598L2.24641 17.664L2.24808 17.6682L2.31102 17.8259L2.31268 17.8301L2.31439 17.8342L2.37961 17.9911L2.38131 17.9953L2.3831 17.9994L2.45054 18.1554L2.45234 18.1596L2.45418 18.1636L2.52389 18.3189L2.52573 18.323L2.52766 18.327L2.59959 18.4813L2.6015 18.4854L2.60346 18.4895L2.67763 18.6428L2.67961 18.6469L2.68162 18.651L2.758 18.8033L2.76005 18.8074L2.76212 18.8114L2.84072 18.9628L2.84283 18.9668L2.84499 18.9708L2.87033 19.0181L2.94013 19.1224L3.02948 19.2128L3.13533 19.2862L3.25395 19.34L3.38125 19.3725L3.51278 19.3823L3.64402 19.3693L3.77034 19.3338L3.88741 19.2771L3.99115 19.2011L4.07797 19.1086L4.14479 19.0026L4.18937 18.887L4.21008 18.7656L4.20626 18.6428L4.17805 18.5228L4.13676 18.4283L4.11396 18.3858L4.039 18.2415L3.96726 18.0984L3.89643 17.9519L3.82875 17.8068L3.76247 17.6593L3.69874 17.5118L3.63668 17.3625L3.57721 17.2135L3.51992 17.0637L3.46458 16.9127L3.41145 16.761L3.3603 16.6081L3.31193 16.4562L3.26563 16.3034L3.22105 16.1483L3.17928 15.9945L3.13986 15.8407L3.10213 15.6843L3.06679 15.5275L3.03418 15.3726L3.00345 15.2152L2.97533 15.0592L2.94936 14.9017L2.92597 14.7455L2.90467 14.5875L2.88578 14.4293L2.86924 14.2712L2.85514 14.1131L2.84341 13.955L2.83408 13.7969L2.8272 13.6388L2.82273 13.481L2.82166 13.4015L2.80779 13.2794L2.76978 13.1617L2.70896 13.0526L2.6275 12.956L2.52815 12.8751L2.41443 12.8128L2.29025 12.7712L2.15993 12.7518L2.02802 12.7552ZM22.1571 21.7724L22.0292 21.8025L21.9095 21.8541L21.8193 21.9121L21.8072 21.9213L21.6736 22.0195L21.5383 22.1164L21.4005 22.2122L21.2615 22.3063L21.1224 22.3977L20.9815 22.4876L20.8399 22.5756L20.6957 22.6624L20.5504 22.7475L20.4038 22.8307L20.2576 22.9111L20.1088 22.9905L19.9598 23.0675L19.8089 23.143L19.6578 23.2161L19.5035 23.2883L19.3514 23.3571L19.1969 23.4245L19.0408 23.4902L18.8854 23.5532L18.7278 23.6147L18.5685 23.6744L18.4118 23.7307L18.2505 23.7863L18.091 23.8389L17.9308 23.8894L17.7683 23.9382L17.6066 23.9843L17.4432 24.0286L17.2794 24.0706L17.1146 24.1104L16.9517 24.1475L16.8275 24.1739L16.7021 24.2123L16.5866 24.2717L16.4849 24.3501L16.4007 24.4446L16.3367 24.5521L16.2953 24.6688L16.2778 24.7905L16.2849 24.9132L16.3163 25.0326L16.371 25.1444L16.4471 25.2448L16.5418 25.3304L16.6519 25.398L16.7736 25.4456L16.9027 25.4712L17.0346 25.4741L17.143 25.4591L17.2719 25.4317L17.277 25.4306L17.282 25.4295L17.4567 25.3898L17.4618 25.3886L17.4668 25.3874L17.6408 25.3453L17.6458 25.3441L17.6508 25.3428L17.8242 25.2984L17.8291 25.2971L17.8341 25.2958L18.0068 25.249L18.0117 25.2476L18.0166 25.2462L18.1886 25.1971L18.1935 25.1957L18.1983 25.1943L18.3696 25.1428L18.3744 25.1414L18.3792 25.1399L18.5497 25.0862L18.5545 25.0847L18.5592 25.0831L18.7289 25.0272L18.7337 25.0256L18.7383 25.024L18.9072 24.9657L18.9119 24.9642L18.9166 24.9625L19.0846 24.902L19.0893 24.9003L19.0939 24.8986L19.261 24.836L19.2656 24.8343L19.2702 24.8325L19.4364 24.7677L19.441 24.7659L19.4455 24.7641L19.6108 24.6971L19.6153 24.6952L19.6197 24.6933L19.7841 24.6242L19.7885 24.6223L19.793 24.6204L19.9563 24.5491L19.9607 24.5472L19.9651 24.5452L20.1274 24.4719L20.1317 24.4699L20.1361 24.4679L20.2973 24.3924L20.3016 24.3904L20.3059 24.3883L20.4661 24.3108L20.4704 24.3087L20.4746 24.3066L20.6337 24.227L20.6379 24.2249L20.6421 24.2227L20.8 24.1411L20.8042 24.139L20.8084 24.1367L20.9651 24.0531L20.9692 24.0509L20.9734 24.0487L21.1288 23.9631L21.133 23.9608L21.1371 23.9585L21.2913 23.871L21.2954 23.8687L21.2994 23.8663L21.4524 23.7768L21.4565 23.7744L21.4605 23.772L21.6122 23.6806L21.6161 23.6782L21.6201 23.6757L21.7705 23.5824L21.7745 23.58L21.7784 23.5775L21.9274 23.4823L21.9313 23.4798L21.9352 23.4772L22.0828 23.3802L22.0867 23.3776L22.0906 23.375L22.2368 23.2761L22.2406 23.2735L22.2445 23.2709L22.3892 23.1701L22.3931 23.1675L22.3968 23.1648L22.5401 23.0623L22.5439 23.0596L22.5476 23.0568L22.6894 22.9525L22.6931 22.9498L22.6969 22.9469L22.712 22.9355L22.8063 22.8495L22.8817 22.7487L22.9358 22.6366L22.9665 22.5171L22.973 22.3944L22.9548 22.2727L22.9127 22.1562L22.8481 22.0491L22.7633 21.9549L22.6612 21.8771L22.5454 21.8182L22.4198 21.7804L22.2889 21.765L22.1571 21.7724ZM6.46136 21.814L6.33622 21.853L6.22102 21.9129L6.11981 21.9918L6.03603 22.0867L5.97264 22.1945L5.93181 22.3113L5.91501 22.4332L5.92278 22.5558L5.95488 22.675L6.01016 22.7866L6.08673 22.8866L6.16455 22.9585L6.20264 22.9886L6.20683 22.9919L6.21108 22.9951L6.35013 23.1016L6.35441 23.1048L6.35873 23.108L6.49958 23.2124L6.50287 23.2149L6.50617 23.2173L6.57726 23.2687L6.57947 23.2703L6.5817 23.2719L6.65326 23.3228L6.65548 23.3244L6.65772 23.326L6.72974 23.3764L6.73198 23.3779L6.73424 23.3795L6.8067 23.4294L6.80897 23.431L6.81127 23.4325L6.88417 23.4819L6.88646 23.4834L6.88876 23.485L6.96214 23.5338L6.96443 23.5354L6.96675 23.5369L7.04054 23.5852L7.04289 23.5867L7.04521 23.5882L7.11947 23.636L7.12182 23.6375L7.12417 23.639L7.19888 23.6863L7.20123 23.6878L7.20361 23.6892L7.27874 23.7359L7.28112 23.7374L7.28353 23.7389L7.35909 23.785L7.3615 23.7865L7.36393 23.788L7.43993 23.8336L7.44236 23.835L7.4448 23.8365L7.52124 23.8815L7.52367 23.883L7.52614 23.8844L7.60302 23.9289L7.60549 23.9303L7.60797 23.9317L7.68528 23.9756L7.68776 23.977L7.69025 23.9784L7.76799 24.0218L7.77051 24.0232L7.77303 24.0246L7.8512 24.0674L7.8537 24.0687L7.85625 24.0701L7.93484 24.1123L7.93739 24.1137L7.93994 24.115L8.01898 24.1566L8.02153 24.158L8.02409 24.1593L8.10354 24.2004L8.10612 24.2017L8.10873 24.203L8.18859 24.2435L8.1912 24.2448L8.19379 24.2461L8.2741 24.286L8.27671 24.2873L8.27933 24.2885L8.36007 24.3278L8.36269 24.3291L8.36535 24.3304L8.44649 24.369L8.44912 24.3703L8.45181 24.3715L8.53336 24.4096L8.53601 24.4108L8.5387 24.4121L8.62067 24.4495L8.62336 24.4508L8.62605 24.452L8.70847 24.4888L8.71114 24.49L8.71385 24.4912L8.79668 24.5275L8.79939 24.5287L8.80212 24.5298L8.88531 24.5654L8.88806 24.5666L8.89082 24.5678L8.97442 24.6028L8.9772 24.6039L8.97996 24.605L9.06398 24.6394L9.06675 24.6406L9.06953 24.6417L9.15397 24.6754L9.15676 24.6765L9.15957 24.6776L9.24441 24.7107L9.2472 24.7118L9.25003 24.7129L9.33527 24.7453L9.33808 24.7464L9.34091 24.7475L9.42655 24.7793L9.4294 24.7803L9.43223 24.7814L9.51828 24.8125L9.52114 24.8136L9.52398 24.8146L9.61044 24.8451L9.61329 24.8461L9.61617 24.8471L9.70303 24.8769L9.70589 24.8779L9.7088 24.8789L9.79602 24.9081L9.79892 24.9091L9.8018 24.91L9.88947 24.9386L9.89235 24.9395L9.89528 24.9404L9.9833 24.9683L9.98621 24.9692L9.98914 24.9701L10.0776 24.9973L10.0805 24.9982L10.0834 24.9991L10.1723 25.0256L10.1752 25.0265L10.1782 25.0274L10.2674 25.0532L10.2703 25.0541L10.2733 25.0549L10.3629 25.0801L10.3658 25.0809L10.3688 25.0817L10.4588 25.1062L10.4617 25.107L10.4647 25.1078L10.5551 25.1316L10.5581 25.1324L10.5611 25.1331L10.6294 25.1505L10.6961 25.172L10.699 25.1729L10.7019 25.1738L10.7909 25.2016L10.7938 25.2026L10.7968 25.2035L10.8859 25.2305L10.8888 25.2314L10.8917 25.2322L10.9809 25.2585L10.9839 25.2594L10.9868 25.2602L11.0761 25.2857L11.079 25.2866L11.082 25.2874L11.1714 25.3121L11.1743 25.313L11.1772 25.3138L11.2667 25.3377L11.2697 25.3385L11.2726 25.3393L11.3621 25.3625L11.3651 25.3633L11.3681 25.3641L11.4577 25.3865L11.4606 25.3872L11.4636 25.388L11.5533 25.4097L11.5563 25.4104L11.5592 25.4111L11.649 25.4321L11.652 25.4328L11.6549 25.4334L11.7447 25.4536L11.7477 25.4543L11.7507 25.455L11.7537 25.4556L11.8845 25.4721L12.0163 25.4658L12.1446 25.4368L12.2648 25.3862L12.3728 25.3157L12.465 25.2277L12.538 25.1253L12.5893 25.0121L12.6171 24.892L12.6205 24.7692L12.5994 24.6479L12.5545 24.5324L12.4873 24.4266L12.4002 24.3343L12.2963 24.2586L12.179 24.2022L12.0773 24.1723L12.0774 24.1721L12.0745 24.1715L11.9896 24.1524L11.9056 24.1328L11.9037 24.1323L11.8259 24.1135L11.8248 24.1132L11.7422 24.0925L11.741 24.0922L11.6586 24.0709L11.6573 24.0705L11.5731 24.048L11.4877 24.0243L11.4082 24.0016L11.4064 24.0011L11.3222 23.9763L11.2392 23.9511L11.1562 23.9252L11.0697 23.8973L11.0477 23.8902L11.0251 23.8845L10.9375 23.8622L10.8524 23.8398L10.7675 23.8167L10.7659 23.8162L10.686 23.7938L10.6027 23.7697L10.519 23.7447L10.4356 23.719L10.3516 23.6924L10.3512 23.6922L10.2726 23.6666L10.1902 23.6391L10.1083 23.6109L10.1068 23.6104L10.0293 23.583L9.95135 23.5548L9.95054 23.5545L9.87133 23.5251L9.86958 23.5244L9.78901 23.4937L9.70865 23.4624L9.70683 23.4617L9.63141 23.4315L9.55197 23.3991L9.47418 23.3665L9.39528 23.3327L9.39362 23.332L9.31942 23.2995L9.24253 23.2651L9.16598 23.2301L9.0898 23.1946L9.01594 23.1594L9.01536 23.1591L8.93719 23.1211L8.86535 23.0854L8.86342 23.0844L8.79064 23.0476L8.78993 23.0472L8.71294 23.0074L8.7112 23.0065L8.64017 22.9691L8.56885 22.9308L8.56766 22.9302L8.49567 22.8908L8.49408 22.8899L8.42005 22.8486L8.35055 22.8092L8.34867 22.808L8.27613 22.7661L8.20698 22.7254L8.2056 22.7245L8.13145 22.68L8.13099 22.6798L8.06146 22.6373L8.06024 22.6365L7.99191 22.594L7.92464 22.5515L7.92346 22.5507L7.85301 22.5054L7.78589 22.4615L7.78459 22.4606L7.71422 22.4138L7.71254 22.4126L7.6465 22.3679L7.58079 22.3227L7.57973 22.3219L7.51059 22.2735L7.50877 22.2723L7.4461 22.2277L7.44454 22.2266L7.37745 22.178L7.24551 22.0802L7.11331 21.979L7.08064 21.9532L6.9725 21.8828L6.8522 21.8323L6.72391 21.8034L6.59212 21.7973L6.46136 21.814Z" fill="white"/>
</svg>
