<svg width="28" height="26" viewBox="0 0 28 26" fill="none" xmlns="http://www.w3.org/2000/svg">
<path d="M27.0921 6.69418C27.0457 5.85852 26.5934 4.90383 24.8289 4.75108L20.6736 4.41349C20.3909 3.42021 19.6866 2.67596 19.0469 2.26727C18.9611 2.04131 18.8068 1.84317 18.6026 1.69666C18.3984 1.55016 18.153 1.46151 17.8959 1.44136L9.82574 0.816958C9.61277 0.800572 9.39866 0.831611 9.2012 0.907496C9.00375 0.983381 8.82864 1.10192 8.69043 1.25327L8.38899 1.38408C7.73449 1.66805 6.96799 2.30465 6.83805 3.71677C5.44768 3.86708 3.76199 4.04908 2.81568 4.15065C1.98705 4.23961 1.48961 5.22883 1.37805 5.46608L1.37455 5.46568V5.47258C0.731427 6.84936 0.685927 9.3868 1.37455 10.8363V18.6006C1.37455 19.8396 2.18218 21.0263 3.19368 21.2538L20.3761 25.129C20.5497 25.1684 20.7191 25.1875 20.8822 25.1875C21.4138 25.1875 21.8815 24.9844 22.2306 24.6386C22.2227 24.6464 22.2179 24.6557 22.2101 24.663V24.6671C22.5219 24.4182 22.8495 24.1868 23.1909 23.974V23.9785C23.1909 23.9785 27.0501 24.0545 27.1184 22.6212L27.1249 22.6208V22.5842C27.1249 22.5842 27.1114 6.80224 27.0921 6.69418ZM17.8364 2.82261C17.8819 2.60608 18.0691 2.37208 18.2909 2.37208C18.3386 2.37208 18.3885 2.38265 18.4388 2.40458C19.2136 2.74055 20.3673 3.79152 20.3765 5.28124C20.3481 5.31374 20.1831 5.37508 19.9154 5.37508C19.6476 5.37508 19.4831 5.31374 19.4634 5.30968C19.4634 4.0954 18.5219 3.41655 18.0236 3.22683C17.8031 3.14315 17.8114 2.93758 17.8364 2.82261ZM8.80155 2.98268C9.02011 3.17347 9.30156 3.29026 9.60043 3.31418L17.6719 3.93777C17.8871 3.95443 18.0923 3.9199 18.2796 3.84961C18.4182 3.95646 18.5539 4.09093 18.6711 4.24977L9.10299 3.4718L8.49836 3.53721C8.56224 3.3223 8.66243 3.13543 8.80155 2.98268ZM8.14705 1.9959C8.13174 2.28636 8.21268 2.57318 8.37761 2.82261C8.11861 3.15493 7.98386 3.58108 7.97511 4.09174C7.9213 4.11368 7.79837 4.14293 7.61374 4.14293C7.43086 4.14293 7.30836 4.11408 7.25411 4.09215C7.26461 3.1269 7.5643 2.42449 8.14705 1.9959ZM2.02599 10.14C1.48699 8.51296 1.81774 6.23633 2.3248 5.51727L3.25799 5.60665L21.6041 7.45224C21.3574 8.49427 21.3425 10.0665 21.5626 12.1538C21.5481 13.0138 21.0161 13.6346 20.2877 13.6346C20.2238 13.6346 13.5506 12.6709 13.5506 12.6709V10.801L8.92055 10.2253L8.44543 11.9299C8.44543 11.9299 3.92868 11.362 2.77411 11.1162C2.4683 11.0512 2.18218 10.6121 2.02599 10.14ZM12.3847 13.5943L8.55305 13.0349L9.24736 10.5426L13.0794 11.0191L12.3847 13.5943ZM13.065 15.9762L9.25699 15.3388L8.56661 13.5025L12.3751 14.0583L13.065 15.9762ZM21.9821 23.023C21.9821 23.8192 21.5297 24.375 20.8822 24.375C20.786 24.375 3.39974 20.4648 3.39974 20.4648C2.85549 20.3421 2.24911 19.5467 2.24911 18.601V12.2712C2.41799 12.6693 3.0808 12.8992 3.26674 12.9277L8.25424 13.6947L8.91968 15.4676L13.5493 16.2427V14.5088L20.4491 15.5695C20.9977 15.6536 21.5367 15.5236 21.9896 15.2482L21.9821 23.023ZM25.0481 5.88615L22.8751 6.76243L2.55099 4.71818C2.67918 4.63124 2.80124 4.56624 2.88043 4.55283L6.81705 4.12546L6.81662 4.14415C6.81662 4.39765 7.11499 4.54918 7.61374 4.54918C8.1138 4.54918 8.41174 4.39765 8.41174 4.14415C8.41174 4.0763 8.42049 4.01496 8.4253 3.95036L9.08636 3.87846L18.9052 4.67674C18.9782 4.86646 19.0242 5.07649 19.0242 5.30968C19.0242 5.59608 19.3737 5.78133 19.9145 5.78133C20.4548 5.78133 20.8039 5.59608 20.8039 5.30968C20.8039 5.14393 20.7891 4.98386 20.7654 4.82827L24.7882 5.1553C25.413 5.20933 25.8732 5.3763 26.1839 5.65336C25.9034 5.61477 25.5364 5.66393 25.0481 5.88615Z" fill="white"/>
</svg>
