<svg xmlns="http://www.w3.org/2000/svg" width="28" height="26" fill="none" viewBox="0 0 28 26"><path fill="#fff" d="M28 15.8167C28 16.4667 26.6 16.9 24.9667 17.1167C23.9167 15.275 21.8167 13.8667 19.3667 12.8917C19.6 12.5667 19.8333 12.35 20.0667 12.025H21C24.6167 11.9167 28 13.975 28 15.8167ZM7.93333 11.9167H7C3.38333 11.9167 0 13.975 0 15.8167C0 16.4667 1.4 16.9 3.03333 17.1167C4.08333 15.275 6.18333 13.8667 8.63333 12.8917L7.93333 11.9167ZM14 13C16.5667 13 18.6667 11.05 18.6667 8.66666C18.6667 6.28333 16.5667 4.33333 14 4.33333C11.4333 4.33333 9.33333 6.28333 9.33333 8.66666C9.33333 11.05 11.4333 13 14 13ZM14 14.0833C9.21667 14.0833 4.66667 16.9 4.66667 19.5C4.66667 21.6667 14 21.6667 14 21.6667C14 21.6667 23.3333 21.6667 23.3333 19.5C23.3333 16.9 18.7833 14.0833 14 14.0833ZM20.65 10.8333H21C22.9833 10.8333 24.5 9.42499 24.5 7.58333C24.5 5.74166 22.9833 4.33333 21 4.33333C20.4167 4.33333 19.95 4.44166 19.4833 4.65833C20.4167 5.74166 21 7.14999 21 8.66666C21 9.42499 20.8833 10.1833 20.65 10.8333ZM7 10.8333H7.35C7.11667 10.1833 7 9.42499 7 8.66666C7 7.14999 7.58333 5.74166 8.51667 4.65833C8.05 4.44166 7.58333 4.33333 7 4.33333C5.01667 4.33333 3.5 5.74166 3.5 7.58333C3.5 9.42499 5.01667 10.8333 7 10.8333Z"/></svg>