<svg width="5" height="5" viewBox="0 0 5 5" fill="none" xmlns="http://www.w3.org/2000/svg">
<path d="M4.97561 4.40977L3.76216 0.243099C3.71902 0.0949218 3.62501 0 3.52154 0H2.67441L2.69568 0.301563C2.70002 0.363021 2.66782 0.416667 2.62658 0.416667H2.37346C2.33223 0.416667 2.30002 0.363021 2.30436 0.301563L2.32563 0H1.4785C1.37494 0 1.28093 0.0949218 1.23779 0.243099L0.0243449 4.40977C-0.0559496 4.68568 0.0721744 5 0.265142 5H1.97381L2.06331 3.72813C2.07077 3.62214 2.13032 3.54167 2.20141 3.54167H2.79863C2.86972 3.54167 2.92927 3.62214 2.93674 3.72813L3.02623 5H4.7349C4.92787 5 5.05599 4.68568 4.97561 4.40977ZM2.26044 0.926563C2.26224 0.900962 2.2703 0.87727 2.28306 0.860054C2.29582 0.842839 2.31237 0.83332 2.32954 0.833333H2.67059C2.7061 0.833333 2.73596 0.873568 2.73969 0.926563L2.77962 1.49401C2.78613 1.58633 2.73787 1.66667 2.67606 1.66667H2.32415C2.26226 1.66667 2.21409 1.58633 2.2206 1.49401L2.26044 0.926563V0.926563ZM2.73995 3.125H2.26001C2.17754 3.125 2.11322 3.01784 2.1219 2.89479L2.16591 2.26979C2.17337 2.1638 2.23292 2.08333 2.30402 2.08333H2.69594C2.76703 2.08333 2.82658 2.1638 2.83405 2.26979L2.87806 2.89479C2.88674 3.01784 2.82241 3.125 2.73995 3.125V3.125Z" fill="white"/>
</svg>
