<svg width="102" height="34" viewBox="0 0 102 34" fill="none" xmlns="http://www.w3.org/2000/svg">
<path d="M2.34961 16.8164H6.22266V18H0.867188V9.46875H2.34961V16.8164ZM10.0137 18.1172C9.11133 18.1172 8.37891 17.834 7.81641 17.2676C7.25781 16.6973 6.97852 15.9395 6.97852 14.9941V14.8184C6.97852 14.1855 7.09961 13.6211 7.3418 13.125C7.58789 12.625 7.93164 12.2363 8.37305 11.959C8.81445 11.6816 9.30664 11.543 9.84961 11.543C10.7129 11.543 11.3789 11.8184 11.8477 12.3691C12.3203 12.9199 12.5566 13.6992 12.5566 14.707V15.2812H8.41406C8.45703 15.8047 8.63086 16.2188 8.93555 16.5234C9.24414 16.8281 9.63086 16.9805 10.0957 16.9805C10.748 16.9805 11.2793 16.7168 11.6895 16.1895L12.457 16.9219C12.2031 17.3008 11.8633 17.5957 11.4375 17.8066C11.0156 18.0137 10.541 18.1172 10.0137 18.1172ZM9.84375 12.6855C9.45312 12.6855 9.13672 12.8223 8.89453 13.0957C8.65625 13.3691 8.50391 13.75 8.4375 14.2383H11.1504V14.1328C11.1191 13.6562 10.9922 13.2969 10.7695 13.0547C10.5469 12.8086 10.2383 12.6855 9.84375 12.6855ZM17.4551 18C17.3926 17.8789 17.3379 17.6816 17.291 17.4082C16.8379 17.8809 16.2832 18.1172 15.627 18.1172C14.9902 18.1172 14.4707 17.9355 14.0684 17.5723C13.666 17.209 13.4648 16.7598 13.4648 16.2246C13.4648 15.5488 13.7148 15.0312 14.2148 14.6719C14.7188 14.3086 15.4375 14.127 16.3711 14.127H17.2441V13.7109C17.2441 13.3828 17.1523 13.1211 16.9688 12.9258C16.7852 12.7266 16.5059 12.627 16.1309 12.627C15.8066 12.627 15.541 12.709 15.334 12.873C15.127 13.0332 15.0234 13.2383 15.0234 13.4883H13.5996C13.5996 13.1406 13.7148 12.8164 13.9453 12.5156C14.1758 12.2109 14.4883 11.9727 14.8828 11.8008C15.2812 11.6289 15.7246 11.543 16.2129 11.543C16.9551 11.543 17.5469 11.7305 17.9883 12.1055C18.4297 12.4766 18.6562 13 18.668 13.6758V16.5352C18.668 17.1055 18.748 17.5605 18.9082 17.9004V18H17.4551ZM15.8906 16.9746C16.1719 16.9746 16.4355 16.9062 16.6816 16.7695C16.9316 16.6328 17.1191 16.4492 17.2441 16.2188V15.0234H16.4766C15.9492 15.0234 15.5527 15.1152 15.2871 15.2988C15.0215 15.4824 14.8887 15.7422 14.8887 16.0781C14.8887 16.3516 14.9785 16.5703 15.1582 16.7344C15.3418 16.8945 15.5859 16.9746 15.8906 16.9746ZM23.4785 12.9609C23.291 12.9297 23.0977 12.9141 22.8984 12.9141C22.2461 12.9141 21.8066 13.1641 21.5801 13.6641V18H20.1562V11.6602H21.5156L21.5508 12.3691C21.8945 11.8184 22.3711 11.543 22.9805 11.543C23.1836 11.543 23.3516 11.5703 23.4844 11.625L23.4785 12.9609ZM25.6992 11.6602L25.7402 12.3926C26.209 11.8262 26.8242 11.543 27.5859 11.543C28.9062 11.543 29.5781 12.2988 29.6016 13.8105V18H28.1777V13.8926C28.1777 13.4902 28.0898 13.1934 27.9141 13.002C27.7422 12.8066 27.459 12.709 27.0645 12.709C26.4902 12.709 26.0625 12.9688 25.7812 13.4883V18H24.3574V11.6602H25.6992Z" fill="white"/>
<path d="M69.9869 15.8027C69.9869 15.4277 69.8541 15.1387 69.5885 14.9355C69.3268 14.7324 68.8522 14.5273 68.1647 14.3203C67.4772 14.1133 66.9303 13.8828 66.524 13.6289C65.7467 13.1406 65.358 12.5039 65.358 11.7188C65.358 11.0312 65.6373 10.4648 66.1959 10.0195C66.7584 9.57422 67.4869 9.35156 68.3815 9.35156C68.9752 9.35156 69.5045 9.46094 69.9694 9.67969C70.4342 9.89844 70.7994 10.2109 71.0651 10.6172C71.3307 11.0195 71.4635 11.4668 71.4635 11.959H69.9869C69.9869 11.5137 69.8463 11.166 69.5651 10.916C69.2877 10.6621 68.8893 10.5352 68.3698 10.5352C67.8854 10.5352 67.5084 10.6387 67.2389 10.8457C66.9733 11.0527 66.8405 11.3418 66.8405 11.7129C66.8405 12.0254 66.985 12.2871 67.274 12.498C67.5631 12.7051 68.0397 12.9082 68.7037 13.1074C69.3678 13.3027 69.901 13.5273 70.3033 13.7812C70.7057 14.0312 71.0006 14.3203 71.1881 14.6484C71.3756 14.9727 71.4694 15.3535 71.4694 15.791C71.4694 16.502 71.1959 17.0684 70.649 17.4902C70.1061 17.9082 69.3678 18.1172 68.4342 18.1172C67.817 18.1172 67.2487 18.0039 66.7291 17.7773C66.2135 17.5469 65.8112 17.2305 65.5221 16.8281C65.2369 16.4258 65.0944 15.957 65.0944 15.4219H66.5768C66.5768 15.9062 66.7369 16.2812 67.0573 16.5469C67.3776 16.8125 67.8365 16.9453 68.4342 16.9453C68.9498 16.9453 69.3365 16.8418 69.5944 16.6348C69.8561 16.4238 69.9869 16.1465 69.9869 15.8027ZM74.0358 12.3516C74.5006 11.8125 75.0885 11.543 75.7994 11.543C77.151 11.543 77.8365 12.3145 77.8561 13.8574V18H76.4323V13.9102C76.4323 13.4727 76.3365 13.1641 76.1451 12.9844C75.9576 12.8008 75.6803 12.709 75.3131 12.709C74.7428 12.709 74.317 12.9629 74.0358 13.4707V18H72.6119V9H74.0358V12.3516ZM83.0885 18C83.026 17.8789 82.9713 17.6816 82.9244 17.4082C82.4713 17.8809 81.9166 18.1172 81.2604 18.1172C80.6237 18.1172 80.1041 17.9355 79.7018 17.5723C79.2994 17.209 79.0983 16.7598 79.0983 16.2246C79.0983 15.5488 79.3483 15.0312 79.8483 14.6719C80.3522 14.3086 81.0709 14.127 82.0045 14.127H82.8776V13.7109C82.8776 13.3828 82.7858 13.1211 82.6022 12.9258C82.4186 12.7266 82.1393 12.627 81.7643 12.627C81.4401 12.627 81.1744 12.709 80.9674 12.873C80.7604 13.0332 80.6569 13.2383 80.6569 13.4883H79.233C79.233 13.1406 79.3483 12.8164 79.5787 12.5156C79.8092 12.2109 80.1217 11.9727 80.5162 11.8008C80.9147 11.6289 81.358 11.543 81.8463 11.543C82.5885 11.543 83.1803 11.7305 83.6217 12.1055C84.0631 12.4766 84.2897 13 84.3014 13.6758V16.5352C84.3014 17.1055 84.3815 17.5605 84.5416 17.9004V18H83.0885ZM81.524 16.9746C81.8053 16.9746 82.069 16.9062 82.3151 16.7695C82.5651 16.6328 82.7526 16.4492 82.8776 16.2188V15.0234H82.11C81.5826 15.0234 81.1862 15.1152 80.9205 15.2988C80.6549 15.4824 80.5221 15.7422 80.5221 16.0781C80.5221 16.3516 80.6119 16.5703 80.7916 16.7344C80.9752 16.8945 81.2194 16.9746 81.524 16.9746ZM89.1119 12.9609C88.9244 12.9297 88.7311 12.9141 88.5319 12.9141C87.8795 12.9141 87.4401 13.1641 87.2135 13.6641V18H85.7897V11.6602H87.149L87.1842 12.3691C87.528 11.8184 88.0045 11.543 88.6139 11.543C88.817 11.543 88.985 11.5703 89.1178 11.625L89.1119 12.9609ZM92.6862 18.1172C91.7838 18.1172 91.0514 17.834 90.4889 17.2676C89.9303 16.6973 89.651 15.9395 89.651 14.9941V14.8184C89.651 14.1855 89.7721 13.6211 90.0143 13.125C90.2604 12.625 90.6041 12.2363 91.0455 11.959C91.4869 11.6816 91.9791 11.543 92.5221 11.543C93.3854 11.543 94.0514 11.8184 94.5201 12.3691C94.9928 12.9199 95.2291 13.6992 95.2291 14.707V15.2812H91.0865C91.1295 15.8047 91.3033 16.2188 91.608 16.5234C91.9166 16.8281 92.3033 16.9805 92.7682 16.9805C93.4205 16.9805 93.9518 16.7168 94.3619 16.1895L95.1295 16.9219C94.8756 17.3008 94.5358 17.5957 94.11 17.8066C93.6881 18.0137 93.2135 18.1172 92.6862 18.1172ZM92.5162 12.6855C92.1256 12.6855 91.8092 12.8223 91.567 13.0957C91.3287 13.3691 91.1764 13.75 91.11 14.2383H93.8229V14.1328C93.7916 13.6562 93.6647 13.2969 93.442 13.0547C93.2194 12.8086 92.9108 12.6855 92.5162 12.6855Z" fill="white"/>
<path d="M48.5 15L55.8612 29.25H41.1388L48.5 15Z" fill="#FCB90F"/>
<path d="M48.5 17L54.1292 28.25H42.8708L48.5 17Z" fill="white"/>
<path d="M48.5 20L52.3971 27.5H44.6029L48.5 20Z" fill="#46EC1D"/>
<path d="M48.5 22L50.6651 26.5H46.3349L48.5 22Z" fill="#AC06FA"/>
<path d="M48.5 24L48.933 25.5H48.067L48.5 24Z" fill="#FCB90F"/>
<path d="M13.6608 11.1936C14.1191 10.1349 14.1191 6.42933 19.1602 2.72377C22.6462 0.161376 29.6231 0.705483 33.3674 2.7238C40.2419 6.42936 40.7002 8.01745 47.1163 14.3698C52.5293 19.7291 52.1575 19.6635 59.9486 26.0159C67.7396 32.3682 73.6974 32.3682 79.1969 27.604C83.6118 23.7793 84.6965 20.1928 84.6965 20.1928" stroke="#FCB90F"/>
<path d="M84.2411 10.6282C83.7857 9.62816 83.7857 6.12816 78.7769 2.62814C75.3132 0.207896 68.381 0.72182 64.6607 2.62818C57.8304 6.12818 57.375 7.62817 51 13.6282C45.6217 18.6901 45.9911 18.6282 38.25 24.6282C30.5089 30.6282 24.5893 30.6282 19.125 26.1282C14.7384 22.5157 13.6607 19.1282 13.6607 19.1282" stroke="#35FB04"/>
<ellipse cx="14.1161" cy="20" rx="1.36607" ry="1" fill="#35FB04"/>
<circle cx="13.5" cy="10.5" r="1.5" fill="#FBD983"/>
<ellipse cx="84.2411" cy="20" rx="1.36607" ry="1" fill="#FBD983"/>
<ellipse cx="84.2411" cy="10" rx="1.36607" ry="1" fill="#35FB04"/>
<circle cx="48.5" cy="15.5" r="0.5" fill="white" fill-opacity="0.97"/>
</svg>
